<?xml version="1.0" encoding="UTF-8" standalone="no"?>
<!-- Created with Inkscape (http://www.inkscape.org/) -->

<svg
   version="1.1"
   id="svg2"
   width="4000"
   height="2519.8132"
   viewBox="0 0 4000 2519.8132"
   sodipodi:docname="021-ohio.eps"
   xmlns:inkscape="http://www.inkscape.org/namespaces/inkscape"
   xmlns:sodipodi="http://sodipodi.sourceforge.net/DTD/sodipodi-0.dtd"
   xmlns="http://www.w3.org/2000/svg"
   xmlns:svg="http://www.w3.org/2000/svg">
  <defs
     id="defs6" />
  <sodipodi:namedview
     id="namedview4"
     pagecolor="#ffffff"
     bordercolor="#000000"
     borderopacity="0.25"
     inkscape:showpageshadow="2"
     inkscape:pageopacity="0.0"
     inkscape:pagecheckerboard="0"
     inkscape:deskcolor="#d1d1d1" />
  <g
     id="g8"
     inkscape:groupmode="layer"
     inkscape:label="ink_ext_XXXXXX"
     transform="matrix(1.3333333,0,0,-1.3333333,0,2519.8133)">
    <g
       id="g10"
       transform="scale(0.1)">
      <path
         d="M 18801.8,9449.28 0,18898.6 V 0 l 18801.8,9449.28 v 0"
         style="fill:#1f2752;fill-opacity:1;fill-rule:evenodd;stroke:none"
         id="path12" />
      <path
         d="m 6501.92,12859.8 c 1883.28,0 3410.55,-1527.3 3410.55,-3410.52 0,-1883.18 -1527.27,-3410.48 -3410.55,-3410.48 -1883.21,0 -3410.48,1527.3 -3410.48,3410.48 0,1883.22 1527.27,3410.52 3410.48,3410.52 v 0"
         style="fill:#ffffff;fill-opacity:1;fill-rule:evenodd;stroke:none"
         id="path14" />
      <path
         d="m 13673.1,11547.8 166,-514.3 540.5,1.1 -437.9,-316.9 168,-513.6 -436.6,318.5 -436.6,-318.5 168,513.6 -437.8,316.9 540.4,-1.1 166,514.3 v 0"
         style="fill:#ffffff;fill-opacity:1;fill-rule:evenodd;stroke:none"
         id="path16" />
      <path
         d="m 16332.8,10267.9 166,-514.26 540.5,1.04 -437.9,-316.8 168,-513.66 -436.6,318.51 -436.6,-318.51 168.1,513.66 -437.9,316.8 540.4,-1.04 166,514.26 v 0"
         style="fill:#ffffff;fill-opacity:1;fill-rule:evenodd;stroke:none"
         id="path18" />
      <path
         d="m 13673.1,8938.11 166,-514.31 540.5,1 -437.9,-316.8 168,-513.6 -436.6,318.5 -436.6,-318.5 168,513.6 -437.8,316.8 540.4,-1 166,514.31 v 0"
         style="fill:#ffffff;fill-opacity:1;fill-rule:evenodd;stroke:none"
         id="path20" />
      <path
         d="m 11023.4,10257.9 166,-514.26 540.4,1.04 -437.8,-316.8 168,-513.66 -436.6,318.51 -436.6,-318.51 168,513.66 -437.8,316.8 540.4,-1.04 166,514.26 v 0"
         style="fill:#ffffff;fill-opacity:1;fill-rule:evenodd;stroke:none"
         id="path22" />
      <path
         d="m 8867.81,6203.4 114.65,-528.2 537.9,-52 -466.86,-272.3 116.7,-527.7 -403.16,359.9 -465.82,-274 217.7,494.6 -404.56,358.3 537.66,-54.1 215.79,495.5 v 0"
         style="fill:#ffffff;fill-opacity:1;fill-rule:evenodd;stroke:none"
         id="path24" />
      <path
         d="m 6080.45,5439.4 432.53,-324.1 440.6,312.9 -174.62,-511.5 433.74,-322.4 -540.32,8 -172.58,-512.1 -159.4,516.4 -540.4,5.9 441.82,311.2 -161.37,515.7 v 0"
         style="fill:#ffffff;fill-opacity:1;fill-rule:evenodd;stroke:none"
         id="path26" />
      <path
         d="m 4146.72,4209 306.38,-445.2 517.43,155.6 -328.86,-428.8 308.05,-444.1 -509.43,180.2 -327.15,-430.2 13.87,540.3 -510.19,178.2 518.04,153.7 11.86,540.3 v 0"
         style="fill:#ffffff;fill-opacity:1;fill-rule:evenodd;stroke:none"
         id="path28" />
      <path
         d="m 4142.94,6185.6 212.17,-497 538.07,50.2 -407.11,-355.4 214.07,-496.1 -463.76,277.4 -405.76,-357 120.46,526.8 -464.85,275.6 538.24,48.2 118.47,527.3 v 0"
         style="fill:#ffffff;fill-opacity:1;fill-rule:evenodd;stroke:none"
         id="path30" />
      <path
         d="m 2488.9,5337.4 146.52,-520.2 540.05,-19.3 -449.42,-300.1 148.5,-519.6 -424.26,334.7 -448.3,-301.8 187.23,507 -425.58,333 539.97,-21.4 185.29,507.7 v 0"
         style="fill:#ffffff;fill-opacity:1;fill-rule:evenodd;stroke:none"
         id="path32" />
      <path
         d="m 2824.67,7803 -54.16,-537.7 495.43,-215.8 -528.03,-114.6 -52.16,-537.9 -272.17,467 -527.73,-116.8 359.91,403.2 -274.04,465.8 494.62,-217.7 358.33,404.5 v 0"
         style="fill:#ffffff;fill-opacity:1;fill-rule:evenodd;stroke:none"
         id="path34" />
      <path
         d="m 1706.39,10127.6 315.72,-438.67 514.07,166.67 -319.61,-435.74 317.38,-437.45 -513.23,169.39 -317.92,-437.1 2.41,540.43 -513.86,167.37 514.7,164.6 0.34,540.5 v 0"
         style="fill:#ffffff;fill-opacity:1;fill-rule:evenodd;stroke:none"
         id="path36" />
      <path
         d="m 2710.87,12448 46.11,-538.4 526.76,-120.6 -497.83,-210.2 48.08,-538.3 -353.72,408.6 -497.07,-212.1 279.28,462.7 -355.34,407.2 526.32,-122.7 277.41,463.8 v 0"
         style="fill:#ffffff;fill-opacity:1;fill-rule:evenodd;stroke:none"
         id="path38" />
      <path
         d="m 6495.72,14732 166.01,-514.2 540.4,1 -437.82,-316.8 167.98,-513.6 -436.57,318.5 -436.6,-318.5 168.01,513.6 -437.84,316.8 540.41,-1 166.02,514.2 v 0"
         style="fill:#ffffff;fill-opacity:1;fill-rule:evenodd;stroke:none"
         id="path40" />
      <path
         d="m 9160.68,14012.5 -113.9,-528.3 468.25,-269.8 -537.59,-54.9 -111.93,-528.7 -218.32,494.4 -537.4,-57 402.65,360.3 -220.21,493.6 467.15,-271.6 401.3,362 v 0"
         style="fill:#ffffff;fill-opacity:1;fill-rule:evenodd;stroke:none"
         id="path42" />
      <path
         d="m 3842.66,14025.9 113.94,-528.3 -468.29,-269.8 537.63,-54.9 111.9,-528.7 218.35,494.3 537.4,-57 -402.65,360.5 220.21,493.5 -467.19,-271.6 -401.3,362 v 0"
         style="fill:#ffffff;fill-opacity:1;fill-rule:evenodd;stroke:none"
         id="path44" />
      <path
         d="m 1972.15,14826.6 202.6,-501 -415.23,-345.9 539.11,37.9 200.65,-501.8 130.55,524.3 539.28,35.8 -458.39,286.3 132.6,523.9 -413.91,-347.5 -457.26,288 v 0"
         style="fill:#ffffff;fill-opacity:1;fill-rule:evenodd;stroke:none"
         id="path46" />
      <path
         d="m 4099.32,16032.6 14.16,-540.2 -510.06,-178.5 518.22,-153.4 12.05,-540.3 306.05,445.4 517.58,-155.5 -328.99,428.8 307.75,444.2 -509.44,-180.5 -327.32,430 v 0"
         style="fill:#ffffff;fill-opacity:1;fill-rule:evenodd;stroke:none"
         id="path48" />
      <path
         d="m 4117.44,9449.28 c 0,-1316.68 1067.82,-2384.48 2384.48,-2384.48 1316.72,0 2384.54,1067.8 2384.54,2384.48 0,1316.72 -1067.82,2384.52 -2384.54,2384.52 -1316.66,0 -2384.48,-1067.8 -2384.48,-2384.52 z M 16307.7,10702.7 18801.8,9449.28 16307.7,8195.8 h 7830.2 l -1575.4,1253.48 1575.4,1253.42 z M 6115.8,3073.6 0,0 30000,3531.6 27423.1,5582 Z M 27423.1,13316.6 30000,15366.9 0,18898.6 6115.77,15825 27423.1,13316.6"
         style="fill:#c3193d;fill-opacity:1;fill-rule:evenodd;stroke:none"
         id="path50" />
      <path
         d="M 16307.7,8195.8 6115.8,3073.6 27423.1,5582 24137.9,8195.8 H 16307.7 Z M 6115.77,15825 16307.7,10702.7 h 7830.2 L 27423.1,13316.6 6115.77,15825 v 0"
         style="fill:#ffffff;fill-opacity:1;fill-rule:evenodd;stroke:none"
         id="path52" />
    </g>
  </g>
</svg>
